<svg xmlns="http://www.w3.org/2000/svg" viewBox="0 0 400 600" width="400" height="600"><defs><radialGradient id="g" cx="50%" cy="38%" r="70%"><stop offset="0%" stop-color="#c8a24a" stop-opacity="0.32"/><stop offset="100%" stop-color="#12100a" stop-opacity="0"/></radialGradient></defs><rect width="400" height="600" fill="#12100a"/><circle cx="54.3" cy="252.9" r="1.42" fill="#fff" opacity="0.21"/><circle cx="132.2" cy="181.1" r="1.32" fill="#fff" opacity="0.32"/><circle cx="198.1" cy="213.6" r="1.03" fill="#fff" opacity="0.58"/><circle cx="0.1" cy="559.7" r="1.13" fill="#fff" opacity="0.56"/><circle cx="64.8" cy="400.9" r="0.85" fill="#fff" opacity="0.50"/><circle cx="168.1" cy="585.7" r="1.33" fill="#fff" opacity="0.44"/><circle cx="394.0" cy="180.4" r="0.61" fill="#fff" opacity="0.32"/><circle cx="289.4" cy="215.2" r="1.56" fill="#fff" opacity="0.63"/><circle cx="114.3" cy="465.7" r="1.20" fill="#fff" opacity="0.62"/><circle cx="167.2" cy="344.8" r="0.56" fill="#fff" opacity="0.49"/><circle cx="80.2" cy="371.2" r="1.29" fill="#fff" opacity="0.48"/><circle cx="230.4" cy="389.4" r="0.98" fill="#fff" opacity="0.44"/><circle cx="392.6" cy="158.8" r="1.41" fill="#fff" opacity="0.26"/><circle cx="368.2" cy="482.9" r="1.08" fill="#fff" opacity="0.29"/><circle cx="188.1" cy="141.5" r="0.60" fill="#fff" opacity="0.37"/><circle cx="307.3" cy="484.5" r="1.30" fill="#fff" opacity="0.35"/><circle cx="238.7" cy="375.9" r="1.53" fill="#fff" opacity="0.45"/><circle cx="373.7" cy="114.4" r="0.84" fill="#fff" opacity="0.43"/><circle cx="181.2" cy="317.0" r="0.90" fill="#fff" opacity="0.18"/><circle cx="86.2" cy="257.8" r="0.91" fill="#fff" opacity="0.44"/><circle cx="277.9" cy="403.7" r="0.54" fill="#fff" opacity="0.45"/><circle cx="318.4" cy="187.3" r="1.48" fill="#fff" opacity="0.41"/><circle cx="113.3" cy="393.5" r="0.78" fill="#fff" opacity="0.33"/><circle cx="205.6" cy="277.7" r="0.78" fill="#fff" opacity="0.42"/><circle cx="57.0" cy="400.5" r="0.77" fill="#fff" opacity="0.28"/><circle cx="45.8" cy="86.0" r="1.35" fill="#fff" opacity="0.63"/><circle cx="120.9" cy="433.8" r="0.61" fill="#fff" opacity="0.19"/><circle cx="46.4" cy="209.6" r="0.61" fill="#fff" opacity="0.22"/><circle cx="324.8" cy="0.3" r="1.24" fill="#fff" opacity="0.49"/><circle cx="221.6" cy="529.7" r="0.91" fill="#fff" opacity="0.52"/><circle cx="161.9" cy="292.5" r="1.18" fill="#fff" opacity="0.45"/><circle cx="349.2" cy="481.4" r="1.45" fill="#fff" opacity="0.61"/><circle cx="189.9" cy="393.4" r="0.84" fill="#fff" opacity="0.35"/><circle cx="90.0" cy="425.5" r="1.42" fill="#fff" opacity="0.45"/><circle cx="123.7" cy="280.5" r="0.73" fill="#fff" opacity="0.19"/><circle cx="70.0" cy="52.1" r="1.20" fill="#fff" opacity="0.54"/><circle cx="67.9" cy="164.5" r="1.34" fill="#fff" opacity="0.26"/><circle cx="32.9" cy="198.0" r="0.92" fill="#fff" opacity="0.41"/><circle cx="324.4" cy="8.2" r="1.35" fill="#fff" opacity="0.28"/><circle cx="6.7" cy="524.5" r="0.58" fill="#fff" opacity="0.24"/><rect width="400" height="600" fill="url(#g)"/><rect x="18" y="18" width="364" height="564" fill="none" stroke="#c8a24a" stroke-opacity="0.5" stroke-width="1.4"/><text x="200" y="72" text-anchor="middle" font-family="Georgia,serif" font-size="14" letter-spacing="6" fill="#c8a24a">CANECA</text><g transform="translate(200,255)" fill="none" stroke="#c8a24a" stroke-width="2.6" stroke-linecap="round"><rect x="-62" y="-56" width="118" height="118" rx="10"/><path d="M56 -26h22a24 24 0 010 48H56"/><path d="M-42 -30h74M-42 -8h56M-42 14h64M-42 36h40" opacity="0.6" stroke-width="2"/></g><line x1="130" y1="424" x2="270" y2="424" stroke="#c8a24a" stroke-opacity="0.45" stroke-width="1"/><text x="200" y="470" text-anchor="middle" font-family="Georgia,serif" font-size="30" fill="#f4efe4">Mapa do Maroto</text><text x="200" y="545" text-anchor="middle" font-family="Georgia,serif" font-size="14" letter-spacing="4" fill="#c8a24a" opacity="0.9">350 ML · CERÂMICA</text></svg>