<svg xmlns="http://www.w3.org/2000/svg" viewBox="0 0 400 600" width="400" height="600">
<defs><radialGradient id="g" cx="50%" cy="30%" r="75%">
<stop offset="0%" stop-color="#c8a24a" stop-opacity="0.30"/><stop offset="100%" stop-color="#1a1220" stop-opacity="0"/>
</radialGradient></defs>
<rect width="400" height="600" fill="#1a1220"/>
<circle cx="6.7" cy="524.5" r="0.59" fill="#fff" opacity="0.27"/><circle cx="35.2" cy="57.1" r="1.66" fill="#fff" opacity="0.66"/><circle cx="31.0" cy="133.2" r="0.70" fill="#fff" opacity="0.58"/><circle cx="239.0" cy="454.2" r="1.13" fill="#fff" opacity="0.29"/><circle cx="96.6" cy="273.0" r="1.55" fill="#fff" opacity="0.63"/><circle cx="155.2" cy="274.2" r="1.19" fill="#fff" opacity="0.41"/><circle cx="131.3" cy="228.2" r="0.53" fill="#fff" opacity="0.50"/><circle cx="147.1" cy="181.4" r="0.57" fill="#fff" opacity="0.41"/><circle cx="202.9" cy="323.8" r="0.85" fill="#fff" opacity="0.62"/><circle cx="69.3" cy="217.8" r="1.11" fill="#fff" opacity="0.63"/><circle cx="11.6" cy="147.3" r="1.20" fill="#fff" opacity="0.52"/><circle cx="76.1" cy="208.2" r="0.75" fill="#fff" opacity="0.49"/><circle cx="238.0" cy="138.8" r="1.37" fill="#fff" opacity="0.56"/><circle cx="61.6" cy="249.1" r="0.54" fill="#fff" opacity="0.35"/><circle cx="277.1" cy="15.6" r="1.16" fill="#fff" opacity="0.45"/><circle cx="73.7" cy="339.4" r="1.51" fill="#fff" opacity="0.39"/><circle cx="17.7" cy="428.0" r="0.83" fill="#fff" opacity="0.52"/><circle cx="293.6" cy="101.4" r="0.96" fill="#fff" opacity="0.36"/><circle cx="172.6" cy="62.3" r="0.76" fill="#fff" opacity="0.50"/><circle cx="35.8" cy="430.3" r="1.02" fill="#fff" opacity="0.24"/><circle cx="111.0" cy="239.4" r="1.42" fill="#fff" opacity="0.62"/><circle cx="37.6" cy="310.4" r="0.78" fill="#fff" opacity="0.28"/><circle cx="150.5" cy="210.0" r="0.61" fill="#fff" opacity="0.59"/><circle cx="193.9" cy="159.9" r="1.08" fill="#fff" opacity="0.56"/><circle cx="143.2" cy="75.5" r="0.91" fill="#fff" opacity="0.27"/><circle cx="177.7" cy="185.3" r="1.19" fill="#fff" opacity="0.34"/><circle cx="371.2" cy="182.3" r="1.18" fill="#fff" opacity="0.41"/><circle cx="326.2" cy="39.0" r="0.97" fill="#fff" opacity="0.39"/><circle cx="56.6" cy="563.3" r="0.85" fill="#fff" opacity="0.44"/><circle cx="211.9" cy="14.9" r="0.94" fill="#fff" opacity="0.41"/><circle cx="294.9" cy="29.5" r="0.87" fill="#fff" opacity="0.65"/><circle cx="312.4" cy="486.8" r="1.64" fill="#fff" opacity="0.56"/><circle cx="300.4" cy="263.2" r="1.15" fill="#fff" opacity="0.49"/><circle cx="371.2" cy="595.8" r="0.62" fill="#fff" opacity="0.67"/><circle cx="58.5" cy="325.9" r="1.30" fill="#fff" opacity="0.35"/><circle cx="22.3" cy="155.8" r="1.43" fill="#fff" opacity="0.31"/><circle cx="196.0" cy="543.0" r="0.72" fill="#fff" opacity="0.38"/><circle cx="105.7" cy="568.0" r="1.41" fill="#fff" opacity="0.27"/><circle cx="373.2" cy="468.9" r="1.04" fill="#fff" opacity="0.26"/><circle cx="31.6" cy="59.2" r="0.60" fill="#fff" opacity="0.62"/><circle cx="66.2" cy="581.2" r="0.89" fill="#fff" opacity="0.42"/><circle cx="199.0" cy="245.0" r="0.96" fill="#fff" opacity="0.38"/><circle cx="357.3" cy="17.9" r="0.94" fill="#fff" opacity="0.70"/><circle cx="137.5" cy="482.4" r="1.05" fill="#fff" opacity="0.59"/><circle cx="229.0" cy="470.7" r="1.23" fill="#fff" opacity="0.33"/><circle cx="286.7" cy="103.7" r="1.49" fill="#fff" opacity="0.62"/>
<rect width="400" height="600" fill="url(#g)"/>
<rect x="18" y="18" width="364" height="564" fill="none" stroke="#c8a24a" stroke-opacity="0.55" stroke-width="1.5"/>
<rect x="26" y="26" width="348" height="548" fill="none" stroke="#c8a24a" stroke-opacity="0.28" stroke-width="0.8"/>
<text x="200" y="112" text-anchor="middle" font-family="Georgia,serif" font-size="17" letter-spacing="6" fill="#c8a24a">HARRY POTTER</text>
<line x1="140" y1="136" x2="260" y2="136" stroke="#c8a24a" stroke-opacity="0.6" stroke-width="1"/>
<text x="200" y="224" text-anchor="middle" font-family="Georgia,'Times New Roman',serif" font-size="44" fill="#f2ead8">e as Relíquias</text><text x="200" y="278" text-anchor="middle" font-family="Georgia,'Times New Roman',serif" font-size="44" fill="#f2ead8">da Morte</text>
<g transform="translate(200,375)" fill="none" stroke="#c8a24a" stroke-width="2.4"><path d="M0 -34L-30 20h60z"/><circle cx="0" cy="4" r="16"/><path d="M0 -34V20"/></g>
<line x1="120" y1="500" x2="280" y2="500" stroke="#c8a24a" stroke-opacity="0.5" stroke-width="1"/>
<text x="200" y="532" text-anchor="middle" font-family="Georgia,serif" font-size="15" letter-spacing="4" fill="#f2ead8" opacity="0.85">J. K. ROWLING</text>
</svg>